HIERARCHY
ROOT joint_Root
{
	OFFSET 0.0 0.0 0.0
	CHANNELS 6 Xposition Yposition Zposition Zrotation Xrotation Yrotation 
	JOINT Hips
	{
		OFFSET 4.5925 91.4895 -427.239
		CHANNELS 6 Xposition Yposition Zposition Zrotation Xrotation Yrotation 
		JOINT Spine
		{
			OFFSET 15.7357 0.0 0.0
			CHANNELS 6 Xposition Yposition Zposition Zrotation Xrotation Yrotation 
			JOINT Chest
			{
				OFFSET 8.98455 -0.406207 0.0
				CHANNELS 6 Xposition Yposition Zposition Zrotation Xrotation Yrotation 
				JOINT Neck
				{
					OFFSET 16.3773 0.0 0.0
					CHANNELS 6 Xposition Yposition Zposition Zrotation Xrotation Yrotation 
					JOINT Head
					{
						OFFSET 6.45672 0.0 0.0
						CHANNELS 6 Xposition Yposition Zposition Zrotation Xrotation Yrotation 
						End Site
						{
							OFFSET 0.0 0.0 0.0
						}
					}
				}
				JOINT Shoulder_L
				{
					OFFSET 12.9942 -0.242716 4.98039
					CHANNELS 6 Xposition Yposition Zposition Zrotation Xrotation Yrotation 
					JOINT UpperArm_L
					{
						OFFSET 5.34809 0.0 0.0
						CHANNELS 6 Xposition Yposition Zposition Zrotation Xrotation Yrotation 
						JOINT LowerArm_L
						{
							OFFSET 24.3286 1.87007e-05 0.0
							CHANNELS 6 Xposition Yposition Zposition Zrotation Xrotation Yrotation 
							JOINT Hand_L
							{
								OFFSET 22.2916 0.0 0.0
								CHANNELS 6 Xposition Yposition Zposition Zrotation Xrotation Yrotation 
								End Site
								{
									OFFSET 0.0 0.0 0.0
								}
							}
						}
					}
				}
				JOINT Shoulder_R
				{
					OFFSET 12.9945 -0.242716 -4.98039
					CHANNELS 6 Xposition Yposition Zposition Zrotation Xrotation Yrotation 
					JOINT UpperArm_R
					{
						OFFSET -5.34813 0.0 0.0
						CHANNELS 6 Xposition Yposition Zposition Zrotation Xrotation Yrotation 
						JOINT LowerArm_R
						{
							OFFSET -24.3289 0.000322201 0.0
							CHANNELS 6 Xposition Yposition Zposition Zrotation Xrotation Yrotation 
							JOINT Hand_R
							{
								OFFSET -22.2915 -0.000108084 0.0
								CHANNELS 6 Xposition Yposition Zposition Zrotation Xrotation Yrotation 
								End Site
								{
									OFFSET 0.0 0.0 0.0
								}
							}
						}
					}
				}
			}
		}
		JOINT UpperLeg_L
		{
			OFFSET -2.19248 -6.46944 0.0
			CHANNELS 6 Xposition Yposition Zposition Zrotation Xrotation Yrotation 
			JOINT LowerLeg_L
			{
				OFFSET 39.0811 0.0 -1.23785e-05
				CHANNELS 6 Xposition Yposition Zposition Zrotation Xrotation Yrotation 
				JOINT Foot_L
				{
					OFFSET 40.9854 0.0 -1.26872e-05
					CHANNELS 6 Xposition Yposition Zposition Zrotation Xrotation Yrotation 
					JOINT Toes_L
					{
						OFFSET 11.7543 0.0 0.0
						CHANNELS 6 Xposition Yposition Zposition Zrotation Xrotation Yrotation 
						End Site
						{
							OFFSET 0.0 0.0 0.0
						}
					}
				}
			}
		}
		JOINT UpperLeg_R
		{
			OFFSET -2.19251 6.46944 0.0
			CHANNELS 6 Xposition Yposition Zposition Zrotation Xrotation Yrotation 
			JOINT LowerLeg_R
			{
				OFFSET -39.0811 -0.00228153 -0.0401928
				CHANNELS 6 Xposition Yposition Zposition Zrotation Xrotation Yrotation 
				JOINT Foot_R
				{
					OFFSET -40.9854 0.0 0.0
					CHANNELS 6 Xposition Yposition Zposition Zrotation Xrotation Yrotation 
					JOINT Toes_R
					{
						OFFSET -11.7543 0.0 0.0
						CHANNELS 6 Xposition Yposition Zposition Zrotation Xrotation Yrotation 
						End Site
						{
							OFFSET 0.0 0.0 0.0
						}
					}
				}
			}
		}
	}
}
MOTION
Frames:	7
Frame Time:	0.0333333
0.000000 0.000000 0.000000 0.000000 0.000000 -0.000000 -4.845340 91.207900 2.167100 88.825000 12.385900 2.331850 15.735700 0.000005 -0.000001 92.949300 86.019000 -97.470900 8.984550 -0.406207 -0.000000 0.229511 0.706376 -9.038600 16.377300 -0.000001 -0.000001 3.238490 -5.530830 5.866350 6.456720 -0.000001 -0.000000 -2.316020 -1.433410 -3.779520 12.994200 -0.242716 4.980390 -91.388500 3.971530 -70.711800 5.348090 -0.000007 -0.000001 -61.588700 13.715600 -5.201170 24.328600 0.000019 0.000005 7.264000 19.055600 -21.326100 22.291600 -0.000001 0.000005 13.143300 5.143150 4.106480 12.994500 -0.242716 -4.980390 94.125900 -10.620200 -68.624100 -5.348130 -0.000001 -0.000004 -53.184700 -66.620000 -96.674300 -24.328900 0.000322 -0.000009 -2.686970 -2.733920 -44.523400 -22.291500 -0.000108 -0.000004 18.619700 5.528920 -7.748310 -2.192480 -6.469440 -0.000000 -172.376000 -4.666400 -8.200000 39.081100 -0.000007 -0.000012 -0.172760 0.329641 27.658600 40.985400 -0.000006 -0.000013 -1.686760 12.596900 -67.811400 11.754300 -0.000000 0.000003 -0.000161 -0.001543 -16.636100 -2.192510 6.469440 -0.000001 -179.789000 29.182500 178.137000 -39.081100 -0.002282 -0.040193 0.017047 -0.029179 25.207300 -40.985400 0.000008 0.000006 8.482170 8.144010 -72.136600 -11.754300 -0.000006 -0.000006 -0.002301 -0.032425 -17.891600
0.000000 0.000000 0.000000 0.000000 0.000000 -0.000000 -4.815900 91.219400 2.148370 88.853700 12.217700 2.376840 15.735700 0.000005 -0.000001 92.771000 85.989500 -97.171500 8.984550 -0.406207 -0.000000 0.286713 0.674353 -8.796800 16.377300 -0.000001 -0.000001 3.319080 -5.544730 5.857130 6.456720 -0.000001 -0.000000 -2.382810 -1.393830 -3.849900 12.994200 -0.242716 4.980390 -91.416300 4.060470 -70.752300 5.348090 -0.000007 -0.000001 -61.434800 14.398100 -5.712950 24.328600 0.000019 0.000005 7.578200 18.662300 -22.575900 22.291600 -0.000001 0.000005 13.072000 5.151580 3.905600 12.994500 -0.242716 -4.980390 94.141100 -10.621600 -68.555100 -5.348130 -0.000001 -0.000004 -53.094600 -66.814500 -96.768200 -24.328900 0.000322 -0.000009 -2.536740 -2.562650 -44.724100 -22.291500 -0.000108 -0.000004 18.485200 5.523490 -7.511550 -2.192480 -6.469440 -0.000000 -172.443000 -4.672270 -8.088110 39.081100 -0.000007 -0.000012 -0.173335 0.331617 27.596100 40.985400 -0.000006 -0.000013 -1.702760 12.403500 -67.793900 11.754300 -0.000000 0.000003 -0.000172 -0.001631 -16.639300 -2.192510 6.469440 -0.000001 -179.889000 29.159500 178.174000 -39.081100 -0.002282 -0.040193 0.017027 -0.029111 25.226500 -40.985400 0.000008 0.000006 8.502670 8.312760 -72.109600 -11.754300 -0.000006 -0.000006 -0.002186 -0.031018 -17.834400
0.000000 0.000000 0.000000 0.000000 0.000000 -0.000000 -4.773070 91.240800 2.120960 88.873400 11.986100 2.378050 15.735700 0.000005 -0.000001 92.338500 85.986200 -96.603500 8.984550 -0.406207 -0.000000 0.291668 0.605160 -8.525740 16.377300 -0.000001 -0.000001 3.374590 -5.530950 5.855730 6.456720 -0.000001 -0.000000 -2.330020 -1.298460 -3.933100 12.994200 -0.242716 4.980390 -91.472500 4.223090 -70.757000 5.348090 -0.000007 -0.000001 -61.309400 14.928900 -6.208150 24.328600 0.000019 0.000005 7.863930 18.408700 -23.623300 22.291600 -0.000001 0.000005 13.110600 5.157870 3.754350 12.994500 -0.242716 -4.980390 94.131300 -10.581100 -68.527700 -5.348130 -0.000001 -0.000004 -52.742900 -66.825000 -96.392200 -24.328900 0.000322 -0.000009 -2.497010 -2.477300 -45.240200 -22.291500 -0.000108 -0.000004 18.309900 5.514710 -7.137760 -2.192480 -6.469440 -0.000000 -172.521000 -4.583520 -7.997860 39.081100 -0.000007 -0.000012 -0.173137 0.332811 27.484900 40.985400 -0.000006 -0.000013 -1.754070 12.068300 -67.751300 11.754300 -0.000000 0.000003 -0.000167 -0.001590 -16.637800 -2.192510 6.469440 -0.000001 -179.949000 29.074000 178.174000 -39.081100 -0.002282 -0.040193 0.017136 -0.029401 25.183300 -40.985400 0.000008 0.000006 8.531770 8.475820 -72.050500 -11.754300 -0.000006 -0.000006 -0.002076 -0.029669 -17.779500
0.000000 0.000000 0.000000 0.000000 0.000000 -0.000000 -4.684070 91.265100 2.123080 88.891600 11.523200 2.427890 15.735700 0.000005 -0.000001 92.122800 85.981700 -96.237900 8.984550 -0.406207 -0.000000 0.298759 0.565328 -8.226070 16.377300 -0.000001 -0.000001 3.537160 -5.504830 5.904690 6.456720 -0.000001 -0.000000 -2.373610 -1.187140 -4.092160 12.994200 -0.242716 4.980390 -91.549600 4.428060 -70.690700 5.348090 -0.000007 -0.000001 -61.238400 15.476800 -6.668580 24.328600 0.000019 0.000005 7.964740 18.040100 -24.313200 22.291600 -0.000001 0.000005 13.302100 5.162200 3.649950 12.994500 -0.242716 -4.980390 94.070000 -10.479200 -68.633600 -5.348130 -0.000001 -0.000004 -51.656300 -66.572100 -94.862500 -24.328900 0.000322 -0.000009 -2.773410 -2.636140 -46.471400 -22.291500 -0.000108 -0.000004 18.408600 5.500760 -6.565490 -2.192480 -6.469440 -0.000000 -172.614000 -4.581010 -7.757880 39.081100 -0.000007 -0.000012 -0.176515 0.341372 27.342600 40.985400 -0.000006 -0.000013 -1.802010 11.612500 -67.760400 11.754300 -0.000000 0.000003 -0.000184 -0.001728 -16.642900 -2.192510 6.469440 -0.000001 179.912000 28.836900 178.269000 -39.081100 -0.002282 -0.040193 0.016828 -0.028827 25.121400 -40.985400 0.000008 0.000006 8.499450 8.754800 -71.980800 -11.754300 -0.000006 -0.000006 -0.001952 -0.028110 -17.716100
0.000000 0.000000 0.000000 0.000000 0.000000 -0.000000 -4.553760 91.290000 2.104010 88.897000 10.853400 2.478580 15.735700 0.000005 -0.000001 91.814000 85.988100 -95.768400 8.984550 -0.406207 -0.000000 0.283704 0.511741 -7.904670 16.377300 -0.000001 -0.000001 3.725920 -5.442610 5.874570 6.456720 -0.000001 -0.000000 -2.495970 -0.998854 -4.146690 12.994200 -0.242716 4.980390 -91.643500 4.679730 -70.624200 5.348090 -0.000007 -0.000001 -61.208000 15.999200 -7.047470 24.328600 0.000019 0.000005 7.983730 17.838100 -24.600300 22.291600 -0.000001 0.000005 13.411300 5.166990 3.533960 12.994500 -0.242716 -4.980390 93.923600 -10.238200 -68.899400 -5.348130 -0.000001 -0.000004 -49.721900 -65.901900 -91.880700 -24.328900 0.000322 -0.000009 -3.702470 -3.249840 -48.763300 -22.291500 -0.000108 -0.000004 18.777700 5.488190 -6.065090 -2.192480 -6.469440 -0.000000 -172.743000 -4.731080 -7.508430 39.081100 -0.000007 -0.000012 -0.175004 0.339913 27.241800 40.985400 -0.000006 -0.000013 -1.824310 11.039800 -67.799600 11.754300 -0.000000 0.000003 -0.000188 -0.001759 -16.644000 -2.192510 6.469440 -0.000001 179.745000 28.570600 178.346000 -39.081100 -0.002282 -0.040193 0.016298 -0.027768 25.063300 -40.985400 0.000008 0.000006 8.492250 9.181180 -71.930000 -11.754300 -0.000006 -0.000006 -0.002024 -0.029022 -17.753200
0.000000 0.000000 0.000000 0.000000 0.000000 -0.000000 -4.373670 91.315800 2.066730 88.903300 9.946550 2.576170 15.735700 0.000005 -0.000001 91.731700 85.980700 -95.513500 8.984550 -0.406207 -0.000000 0.296294 0.489016 -7.559760 16.377300 -0.000001 -0.000001 3.860350 -5.355780 5.739140 6.456720 -0.000001 -0.000000 -2.676330 -0.872237 -4.083290 12.994200 -0.242716 4.980390 -91.756900 4.986330 -70.562800 5.348090 -0.000007 -0.000001 -61.161800 16.871400 -7.430210 24.328600 0.000019 0.000005 7.786300 17.555900 -24.385900 22.291600 -0.000001 0.000005 13.660400 5.167030 3.532830 12.994500 -0.242716 -4.980390 93.696600 -9.884980 -69.376700 -5.348130 -0.000001 -0.000004 -47.242100 -64.702200 -87.456700 -24.328900 0.000322 -0.000009 -4.992190 -3.840700 -52.505900 -22.291500 -0.000108 -0.000004 19.354300 5.477420 -5.650190 -2.192480 -6.469440 -0.000000 -172.887000 -5.068240 -7.180500 39.081100 -0.000007 -0.000012 -0.177388 0.345952 27.146900 40.985400 -0.000006 -0.000013 -1.820030 10.439700 -67.856100 11.754300 -0.000000 0.000003 -0.000201 -0.001860 -16.647700 -2.192510 6.469440 -0.000001 179.526000 28.138700 178.451000 -39.081100 -0.002282 -0.040193 0.015777 -0.026728 25.003200 -40.985400 0.000008 0.000006 8.498790 9.697930 -71.902100 -11.754300 -0.000006 -0.000006 -0.001957 -0.028172 -17.718700
0.000000 0.000000 0.000000 0.000000 0.000000 -0.000000 -4.137390 91.339600 1.999650 88.899200 8.824480 2.655330 15.735700 0.000005 -0.000001 91.450100 85.960000 -95.045700 8.984550 -0.406207 -0.000000 0.335332 0.437266 -7.187420 16.377300 -0.000001 -0.000001 3.799390 -5.193230 5.533910 6.456720 -0.000001 -0.000000 -2.813010 -0.739355 -3.858800 12.994200 -0.242716 4.980390 -91.856700 5.236810 -70.447000 5.348090 -0.000007 -0.000001 -61.296500 17.837900 -7.823900 24.328600 0.000019 0.000005 7.595300 17.624000 -23.769500 22.291600 -0.000001 0.000005 13.726000 5.168880 3.487870 12.994500 -0.242716 -4.980390 93.303900 -9.176060 -70.100100 -5.348130 -0.000001 -0.000004 -44.714100 -62.825100 -82.187700 -24.328900 0.000322 -0.000009 -6.235300 -3.939060 -57.831600 -22.291500 -0.000108 -0.000004 19.927500 5.474760 -5.549720 -2.192480 -6.469440 -0.000000 -173.057000 -5.570420 -6.863570 39.081100 -0.000007 -0.000012 -0.176226 0.344499 27.091900 40.985400 -0.000006 -0.000013 -1.781490 9.794320 -67.946200 11.754300 -0.000000 0.000003 -0.000220 -0.002004 -16.652900 -2.192510 6.469440 -0.000001 179.316000 27.510900 178.477000 -39.081100 -0.002282 -0.040193 0.015591 -0.026360 24.977900 -40.985400 0.000008 0.000006 8.516590 10.234800 -71.882400 -11.754300 -0.000006 -0.000006 -0.001837 -0.026662 -17.657200
